<?xml version="1.0" encoding="UTF-8" standalone="no"?>
<svg
   xmlns:dc="http://purl.org/dc/elements/1.1/"
   xmlns:cc="http://creativecommons.org/ns#"
   xmlns:rdf="http://www.w3.org/1999/02/22-rdf-syntax-ns#"
   xmlns:svg="http://www.w3.org/2000/svg"
   xmlns="http://www.w3.org/2000/svg"
   xmlns:sodipodi="http://sodipodi.sourceforge.net/DTD/sodipodi-0.dtd"
   xmlns:inkscape="http://www.inkscape.org/namespaces/inkscape"
   version="1"
   viewBox="0 0 24 24"
   enable-background="new 0 0 48 48"
   id="svg12"
   sodipodi:docname="log.svg"
   inkscape:version="1.0.2 (e86c870879, 2021-01-15)"
   width="24"
   height="24">
  <metadata
     id="metadata18">
    <rdf:RDF>
      <cc:Work
         rdf:about="">
        <dc:format>image/svg+xml</dc:format>
        <dc:type
           rdf:resource="http://purl.org/dc/dcmitype/StillImage" />
        <dc:title />
      </cc:Work>
    </rdf:RDF>
  </metadata>
  <defs
     id="defs16">
    <inkscape:path-effect
       effect="bspline"
       id="path-effect4517"
       is_visible="true"
       weight="33.333333"
       steps="2"
       helper_size="0"
       apply_no_weight="true"
       apply_with_weight="true"
       only_selected="false" />
    <inkscape:perspective
       sodipodi:type="inkscape:persp3d"
       inkscape:vp_x="2.1085087 : -0.01579032 : 1"
       inkscape:vp_y="-9.1717358 : 40.677048 : 0"
       inkscape:vp_z="2.439686 : 0.66241427 : 1"
       inkscape:persp3d-origin="2.3474712 : -0.0021044275 : 1"
       id="perspective4515" />
  </defs>
  <sodipodi:namedview
     pagecolor="#ffffff"
     bordercolor="#666666"
     borderopacity="1"
     objecttolerance="10"
     gridtolerance="10"
     guidetolerance="10"
     inkscape:pageopacity="0"
     inkscape:pageshadow="2"
     inkscape:window-width="1920"
     inkscape:window-height="1007"
     id="namedview14"
     showgrid="true"
     inkscape:zoom="22.84"
     inkscape:cx="3.8887916"
     inkscape:cy="11.042744"
     inkscape:window-x="0"
     inkscape:window-y="0"
     inkscape:window-maximized="1"
     inkscape:current-layer="svg12"
     inkscape:document-rotation="0">
    <inkscape:grid
       type="xygrid"
       id="grid4510" />
  </sodipodi:namedview>
  <path
     inkscape:connector-curvature="0"
     style="opacity:1;fill:#aa4400;fill-opacity:1;fill-rule:nonzero;stroke:none;stroke-width:1.72833216;stroke-linecap:square;stroke-linejoin:miter;stroke-miterlimit:4;stroke-dasharray:none;stroke-opacity:1;paint-order:markers fill stroke"
     d="M 6,0 C 2.676,0 0,2.676 0,6 v 12 c 0,3.324 2.676,6 6,6 h 12 c 3.324,0 6,-2.676 6,-6 V 6 C 24,2.676 21.324,0 18,0 Z m 0.5,1 h 11 C 20.547,1 23,3.453 23,6.5 v 11 C 23,20.547 20.547,23 17.5,23 H 6.5 C 3.453,23 1,20.547 1,17.5 V 6.5 C 1,3.453 3.453,1 6.5,1 Z"
     id="rect828" />
  <path
     style="fill:#ff6600;fill-opacity:1;fill-rule:nonzero;stroke:none;stroke-width:0.253865;stroke-linecap:square;stroke-linejoin:round;stroke-miterlimit:4;stroke-dasharray:none;stroke-dashoffset:0;stroke-opacity:1;paint-order:stroke fill markers"
     d="M 15.89637,4.0306361 A 3.8316758,3.9242727 41.170303 0 0 13.568405,4.7093918 3.8316758,3.9242727 41.170303 0 0 11.950048,9 l -6.8990523,7.889137 c -0.7682261,0.878455 -0.8096641,2.090706 -0.092556,2.717829 0.7171074,0.627123 1.9131408,0.424783 2.681368,-0.453674 L 14.280818,11.55936 a 3.8316758,3.9242727 41.170303 0 0 3.5221,-0.448064 3.8316758,3.9242727 41.170303 0 0 1.65552,-4.142656 l -2.933799,1.9913921 -1.43885,-2.174404 2.956235,-2.0068177 A 3.8316758,3.9242727 41.170303 0 0 15.89637,4.0306361 Z m -4.355819,7.3744609 c 0.173922,-0.0035 0.335911,0.04813 0.462087,0.15847 0.336469,0.294249 0.287816,0.895703 -0.108681,1.349098 L 8.2133871,17.121934 C 7.8168863,17.575329 7.2267042,17.702972 6.8902334,17.408722 6.5537626,17.114472 6.602417,16.513017 6.9989144,16.059624 l 3.6805696,-4.209268 c 0.247813,-0.283372 0.571196,-0.439713 0.861067,-0.445259 z"
     id="rect4511"
     inkscape:connector-curvature="0" />
</svg>
