<?xml version="1.0" encoding="UTF-8" standalone="no"?>
<svg
   xmlns:osb="http://www.openswatchbook.org/uri/2009/osb"
   xmlns:dc="http://purl.org/dc/elements/1.1/"
   xmlns:cc="http://creativecommons.org/ns#"
   xmlns:rdf="http://www.w3.org/1999/02/22-rdf-syntax-ns#"
   xmlns:svg="http://www.w3.org/2000/svg"
   xmlns="http://www.w3.org/2000/svg"
   xmlns:xlink="http://www.w3.org/1999/xlink"
   xmlns:sodipodi="http://sodipodi.sourceforge.net/DTD/sodipodi-0.dtd"
   xmlns:inkscape="http://www.inkscape.org/namespaces/inkscape"
   width="256px"
   height="256px"
   viewBox="0 0 256 256"
   version="1.1"
   id="SVGRoot"
   sodipodi:docname="ffcuesplittergui.svg"
   inkscape:version="1.0.2 (e86c870879, 2021-01-15)"
   enable-background="new">
  <sodipodi:namedview
     id="base"
     pagecolor="#ffffff"
     bordercolor="#666666"
     borderopacity="1.0"
     inkscape:pageopacity="0.0"
     inkscape:pageshadow="2"
     inkscape:zoom="1.5414928"
     inkscape:cx="97.237312"
     inkscape:cy="159.68412"
     inkscape:document-units="px"
     inkscape:current-layer="layer3"
     showgrid="true"
     inkscape:window-width="1920"
     inkscape:window-height="1007"
     inkscape:window-x="0"
     inkscape:window-y="0"
     inkscape:window-maximized="1"
     inkscape:grid-bbox="true"
     inkscape:measure-start="110,130"
     inkscape:measure-end="0,0"
     showguides="true"
     inkscape:document-rotation="0">
    <inkscape:grid
       type="xygrid"
       id="grid5114" />
  </sodipodi:namedview>
  <defs
     id="defs4485">
    <linearGradient
       inkscape:collect="always"
       id="linearGradient942">
      <stop
         style="stop-color:#ffcc00;stop-opacity:1;"
         offset="0"
         id="stop938" />
      <stop
         style="stop-color:#ffcc00;stop-opacity:0.1660314"
         offset="1"
         id="stop940" />
    </linearGradient>
    <linearGradient
       inkscape:collect="always"
       id="linearGradient932">
      <stop
         style="stop-color:#374cab;stop-opacity:1;"
         offset="0"
         id="stop928" />
      <stop
         style="stop-color:#d14c1d;stop-opacity:0"
         offset="1"
         id="stop930" />
    </linearGradient>
    <inkscape:path-effect
       effect="bspline"
       id="path-effect4551"
       is_visible="true"
       weight="33.333333"
       steps="2"
       helper_size="0"
       apply_no_weight="true"
       apply_with_weight="true"
       only_selected="false" />
    <inkscape:path-effect
       effect="skeletal"
       id="path-effect4547"
       is_visible="true"
       pattern="M 0,5 C 0,2.24 2.24,0 5,0 7.76,0 10,2.24 10,5 10,7.76 7.76,10 5,10 2.24,10 0,7.76 0,5 Z"
       copytype="single_stretched"
       prop_scale="1"
       scale_y_rel="false"
       spacing="0"
       normal_offset="0"
       tang_offset="0"
       prop_units="false"
       vertical_pattern="false"
       fuse_tolerance="0" />
    <inkscape:path-effect
       effect="bspline"
       id="path-effect4545"
       is_visible="true"
       weight="33.333333"
       steps="2"
       helper_size="0"
       apply_no_weight="true"
       apply_with_weight="true"
       only_selected="false" />
    <inkscape:path-effect
       effect="skeletal"
       id="path-effect4541"
       is_visible="true"
       pattern="M 0,5 C 0,2.24 2.24,0 5,0 7.76,0 10,2.24 10,5 10,7.76 7.76,10 5,10 2.24,10 0,7.76 0,5 Z"
       copytype="single_stretched"
       prop_scale="1"
       scale_y_rel="false"
       spacing="0"
       normal_offset="0"
       tang_offset="0"
       prop_units="false"
       vertical_pattern="false"
       fuse_tolerance="0" />
    <inkscape:path-effect
       effect="spiro"
       id="path-effect4539"
       is_visible="true" />
    <inkscape:path-effect
       effect="bspline"
       id="path-effect4535"
       is_visible="true"
       weight="33.333333"
       steps="2"
       helper_size="0"
       apply_no_weight="true"
       apply_with_weight="true"
       only_selected="false" />
    <inkscape:path-effect
       effect="skeletal"
       id="path-effect4531"
       is_visible="true"
       pattern="M 0,5 C 0,2.24 2.24,0 5,0 7.76,0 10,2.24 10,5 10,7.76 7.76,10 5,10 2.24,10 0,7.76 0,5 Z"
       copytype="single_stretched"
       prop_scale="1"
       scale_y_rel="false"
       spacing="0"
       normal_offset="0"
       tang_offset="0"
       prop_units="false"
       vertical_pattern="false"
       fuse_tolerance="0" />
    <inkscape:path-effect
       effect="bspline"
       id="path-effect4529"
       is_visible="true"
       weight="33.333333"
       steps="2"
       helper_size="0"
       apply_no_weight="true"
       apply_with_weight="true"
       only_selected="false" />
    <inkscape:path-effect
       effect="skeletal"
       id="path-effect4525"
       is_visible="true"
       pattern="M 0,5 C 0,2.24 2.24,0 5,0 7.76,0 10,2.24 10,5 10,7.76 7.76,10 5,10 2.24,10 0,7.76 0,5 Z"
       copytype="single_stretched"
       prop_scale="1"
       scale_y_rel="false"
       spacing="0"
       normal_offset="0"
       tang_offset="0"
       prop_units="false"
       vertical_pattern="false"
       fuse_tolerance="0" />
    <inkscape:path-effect
       effect="bspline"
       id="path-effect4523"
       is_visible="true"
       weight="33.333333"
       steps="2"
       helper_size="0"
       apply_no_weight="true"
       apply_with_weight="true"
       only_selected="false" />
    <inkscape:path-effect
       effect="bspline"
       id="path-effect4519"
       is_visible="true"
       weight="33.333333"
       steps="2"
       helper_size="0"
       apply_no_weight="true"
       apply_with_weight="true"
       only_selected="false" />
    <pattern
       inkscape:isstock="true"
       inkscape:stockid="Stripes 1:1"
       id="Strips1_1"
       patternTransform="translate(0,0) scale(10,10)"
       height="1"
       width="2"
       patternUnits="userSpaceOnUse"
       inkscape:collect="always">
      <rect
         id="rect5447"
         height="2"
         width="1"
         y="-0.5"
         x="0"
         style="fill:black;stroke:none" />
    </pattern>
    <linearGradient
       id="linearGradient4727"
       osb:paint="solid">
      <stop
         style="stop-color:#ce5c00;stop-opacity:1;"
         offset="0"
         id="stop4725" />
    </linearGradient>
    <pattern
       patternUnits="userSpaceOnUse"
       width="55"
       height="90"
       patternTransform="translate(-60,50.5)"
       id="pattern6214">
      <g
         style="fill:url(#Strips1_1);fill-opacity:1"
         transform="translate(-15,-28.5)"
         id="g4691">
        <rect
           style="opacity:0.81499999;fill:url(#Strips1_1);fill-opacity:1;stroke:none;stroke-width:4.52699995;stroke-linecap:round;stroke-linejoin:bevel;stroke-miterlimit:17.60000038;stroke-dasharray:none;stroke-dashoffset:0;stroke-opacity:1;paint-order:stroke fill markers"
           id="rect4683"
           width="30"
           height="30"
           x="40"
           y="59"
           ry="7.9000001" />
        <path
           inkscape:connector-curvature="0"
           style="opacity:0.81499999;fill:url(#Strips1_1);fill-opacity:1;stroke:none;stroke-width:8.60130024;stroke-linecap:round;stroke-linejoin:bevel;stroke-miterlimit:17.60000038;stroke-dasharray:none;stroke-dashoffset:0;stroke-opacity:1;paint-order:stroke fill markers"
           d="m 15,28.5 v 90 l 45,-45 z"
           id="path4687" />
      </g>
    </pattern>
    <radialGradient
       inkscape:collect="always"
       xlink:href="#linearGradient932"
       id="radialGradient934"
       cx="128"
       cy="128"
       fx="128"
       fy="128"
       r="119.83694"
       gradientTransform="matrix(0.58012903,-0.81452459,2.319819,1.6522452,-243.19334,20.771766)"
       gradientUnits="userSpaceOnUse" />
    <radialGradient
       inkscape:collect="always"
       xlink:href="#linearGradient942"
       id="radialGradient944"
       cx="128"
       cy="128"
       fx="128"
       fy="128"
       r="119.83694"
       gradientTransform="matrix(-0.40054433,-0.40054425,1.7552398,-1.7552402,-45.401011,403.94041)"
       gradientUnits="userSpaceOnUse" />
    <filter
       inkscape:collect="always"
       style="color-interpolation-filters:sRGB"
       id="filter3670"
       x="-0.0005465378"
       width="1.0010931"
       y="-0.0017044661"
       height="1.0034089">
      <feGaussianBlur
         inkscape:collect="always"
         stdDeviation="0.054474122"
         id="feGaussianBlur3672" />
    </filter>
  </defs>
  <metadata
     id="metadata4488">
    <rdf:RDF>
      <cc:Work
         rdf:about="">
        <dc:format>image/svg+xml</dc:format>
        <dc:type
           rdf:resource="http://purl.org/dc/dcmitype/StillImage" />
        <dc:title />
      </cc:Work>
    </rdf:RDF>
  </metadata>
  <g
     inkscape:groupmode="layer"
     id="layer2"
     inkscape:label="audio wave form"
     style="display:inline" />
  <g
     id="layer1"
     inkscape:groupmode="layer"
     inkscape:label="film strip"
     style="display:inline;opacity:1;mix-blend-mode:normal" />
  <g
     inkscape:groupmode="layer"
     id="layer3"
     inkscape:label="background"
     style="display:inline;opacity:1">
    <path
       id="ellipse870"
       style="opacity:1;fill:#00ccff;fill-opacity:1;fill-rule:nonzero;stroke:none;stroke-width:1.538;stroke-linecap:round;stroke-linejoin:round;stroke-miterlimit:4;stroke-dasharray:none;stroke-opacity:0.368142"
       d="M 127.63867 8.3945312 A 119.83694 119.60638 0 0 0 8.1621094 128 A 119.83694 119.60638 0 0 0 128 247.60547 A 119.83694 119.60638 0 0 0 247.83789 128 A 119.83694 119.60638 0 0 0 128 8.3945312 A 119.83694 119.60638 0 0 0 127.63867 8.3945312 z M 128 112.39258 A 15.607963 15.607963 0 0 1 143.60742 128 A 15.607963 15.607963 0 0 1 128 143.60742 A 15.607963 15.607963 0 0 1 112.39258 128 A 15.607963 15.607963 0 0 1 128 112.39258 z " />
    <ellipse
       style="opacity:1;fill:none;fill-opacity:1;fill-rule:nonzero;stroke:none;stroke-width:10.7241;stroke-linecap:round;stroke-linejoin:round;stroke-miterlimit:4;stroke-dasharray:none;stroke-opacity:0.983553"
       id="ellipse866"
       cx="128"
       cy="123.66737"
       rx="120.81003"
       ry="120.57758" />
    <ellipse
       ry="95.08667"
       rx="88.790665"
       cy="98.029144"
       cx="128"
       id="ellipse878"
       style="opacity:1;fill:none;fill-opacity:1;fill-rule:nonzero;stroke:none;stroke-width:5.44972;stroke-linecap:round;stroke-linejoin:round;stroke-miterlimit:4;stroke-dasharray:none;stroke-opacity:1" />
    <path
       id="ellipse1218"
       style="opacity:1;fill:#e3e2db;fill-opacity:1;fill-rule:nonzero;stroke:#1a1a1a;stroke-width:5.00093;stroke-linecap:round;stroke-linejoin:round;stroke-miterlimit:4;stroke-dasharray:none;stroke-opacity:0.368142"
       d="M 128,84.238281 A 43.846458,43.762096 0 0 0 84.1543,128 43.846458,43.762096 0 0 0 128,171.76172 43.846458,43.762096 0 0 0 171.8457,128 43.846458,43.762096 0 0 0 128,84.238281 Z m 0,29.925779 A 13.862226,13.835555 0 0 1 141.86133,128 13.862226,13.835555 0 0 1 128,141.83594 13.862226,13.835555 0 0 1 114.13867,128 13.862226,13.835555 0 0 1 128,114.16406 Z" />
    <path
       id="ellipse1240"
       style="opacity:1;fill:#ececec;fill-opacity:1;fill-rule:nonzero;stroke:#1a1a1a;stroke-width:1.9259;stroke-linecap:round;stroke-linejoin:round;stroke-miterlimit:4;stroke-dasharray:none;stroke-opacity:0.368142"
       d="m 127.80859,106.52148 a 21.695787,21.654045 0 0 0 -21.69726,21.65235 21.695787,21.654045 0 0 0 21.69726,21.65429 21.695787,21.654045 0 0 0 21.69532,-21.65429 21.695787,21.654045 0 0 0 -21.69532,-21.65235 z m 0,6.93555 a 14.745204,14.716834 0 0 1 14.74414,14.7168 14.745204,14.716834 0 0 1 -14.74414,14.71679 14.745204,14.716834 0 0 1 -14.74609,-14.71679 14.745204,14.716834 0 0 1 14.74609,-14.7168 z" />
    <path
       id="path1304"
       style="opacity:1;mix-blend-mode:normal;fill:#37c8ab;fill-opacity:1;fill-rule:nonzero;stroke:none;stroke-width:0.238;stroke-linecap:round;stroke-linejoin:round;stroke-miterlimit:4;stroke-dasharray:none;stroke-opacity:1"
       d="m 128.00229,8.5559923 a 119.83694,119.60638 0 0 0 -38.6211,6.5039097 l 19.68554,58.291017 a 58.112213,58.000407 0 0 1 18.82421,-3.18945 58.112213,58.000407 0 0 1 0.17579,-5e-6 58.112213,58.000407 0 0 1 18.27147,2.94141 L 166.0843,14.63607 A 119.83694,119.60638 0 0 0 128.36361,8.5559987 119.83694,119.60638 0 0 0 128.00229,8.555988 Z M 109.06672,182.97397 89.38117,241.26108 a 119.83694,119.60638 0 0 0 38.98241,6.50586 119.83694,119.60638 0 0 0 37.72071,-6.08204 L 146.3382,183.21811 a 58.112213,58.000407 0 0 1 -18.27149,2.94336 58.112213,58.000407 0 0 1 -18.99999,-3.1875 z" />
    <path
       id="path1302"
       style="opacity:1;fill:#dbe2e3;fill-opacity:1;fill-rule:nonzero;stroke:none;stroke-width:10.6377;stroke-linecap:round;stroke-linejoin:round;stroke-miterlimit:4;stroke-dasharray:none;stroke-opacity:0.983553;filter:url(#filter3670)"
       d="m 8.3236352,128.05282 a 119.83694,119.60638 90 0 0 6.5039128,38.6211 l 58.291008,-19.68554 a 58.000407,58.112213 0 0 1 -3.189445,-18.82422 58.000407,58.112213 0 0 1 6e-6,-0.17579 58.000407,58.112213 0 0 1 2.941409,-18.27148 L 14.403718,89.9708 a 119.83694,119.60638 90 0 0 -6.0800836,37.72069 119.83694,119.60638 90 0 0 8e-7,0.36133 z m 174.4179748,18.93554 58.28712,19.68557 a 119.83694,119.60638 90 0 0 6.50584,-38.98242 119.83694,119.60638 90 0 0 -6.08203,-37.720712 l -58.4668,19.746112 a 58.000407,58.112213 0 0 1 2.94337,18.27148 58.000407,58.112213 0 0 1 -3.1875,18.99997 z"
       transform="rotate(-60,127.92904,128.32236)" />
    <path
       id="path3674"
       style="opacity:1;mix-blend-mode:normal;fill:#00ffff;fill-opacity:1;fill-rule:nonzero;stroke:none;stroke-width:0.238;stroke-linecap:round;stroke-linejoin:round;stroke-miterlimit:4;stroke-dasharray:none;stroke-opacity:1"
       d="M 212.66845,43.686541 A 119.83694,119.60638 45 0 0 180.76024,20.976256 l -27.29819,55.137755 a 58.112213,58.000407 45 0 1 15.56601,11.055444 58.112213,58.000407 45 0 1 0.12431,0.124299 58.112213,58.000407 45 0 1 10.83999,14.999776 l 55.30487,-27.379677 a 119.83694,119.60638 45 0 0 -22.3733,-30.971815 119.83694,119.60638 45 0 0 -0.25548,-0.2555 z M 75.94684,153.62921 20.81185,180.92463 a 119.83694,119.60638 45 0 0 22.96438,32.16507 119.83694,119.60638 45 0 0 30.97323,22.37191 l 27.37967,-55.30485 A 58.112213,58.000407 45 0 1 87.12796,169.31813 58.112213,58.000407 45 0 1 75.94684,153.62921 Z" />
    <path
       id="path3676"
       style="opacity:1;fill:#37abc8;fill-opacity:1;fill-rule:nonzero;stroke:none;stroke-width:10.6377;stroke-linecap:round;stroke-linejoin:round;stroke-miterlimit:4;stroke-dasharray:none;stroke-opacity:0.983553;filter:url(#filter3670)"
       d="m 8.3236352,128.05282 a 119.83694,119.60638 90 0 0 6.5039128,38.6211 l 58.291008,-19.68554 a 58.000407,58.112213 0 0 1 -3.189445,-18.82422 58.000407,58.112213 0 0 1 6e-6,-0.17579 58.000407,58.112213 0 0 1 2.941409,-18.27148 L 14.403718,89.9708 a 119.83694,119.60638 90 0 0 -6.0800836,37.72069 119.83694,119.60638 90 0 0 8e-7,0.36133 z m 174.4179748,18.93554 58.28712,19.68557 a 119.83694,119.60638 90 0 0 6.50584,-38.98242 119.83694,119.60638 90 0 0 -6.08203,-37.720712 l -58.4668,19.746112 a 58.000407,58.112213 0 0 1 2.94337,18.27148 58.000407,58.112213 0 0 1 -3.1875,18.99997 z"
       transform="rotate(-30,127.92904,128.32236)" />
    <path
       id="path876"
       style="opacity:1;fill:#87decd;fill-opacity:1;fill-rule:nonzero;stroke:none;stroke-width:1.538;stroke-linecap:round;stroke-linejoin:round;stroke-miterlimit:4;stroke-dasharray:none;stroke-opacity:0.368142"
       d="M 127.63867,8.3945983 A 119.83694,119.60638 0 0 0 8.16211,128.00007 119.83694,119.60638 0 0 0 128,247.60554 119.83694,119.60638 0 0 0 247.83789,128.00007 119.83694,119.60638 0 0 0 128,8.3945983 a 119.83694,119.60638 0 0 0 -0.36133,0 z m 0.01,3.2558597 a 116.57508,116.35083 0 0 1 0.35157,0 A 116.57508,116.35083 0 0 1 244.57422,128.00007 116.57508,116.35083 0 0 1 128,244.34968 116.57508,116.35083 0 0 1 11.42382,128.00007 116.57508,116.35083 0 0 1 127.64843,11.650458 Z" />
    <path
       id="path881"
       style="opacity:0.635129;fill:#4d4d4d;stroke-width:1.80229;stroke-opacity:0.368142"
       d="M 128,69.408203 A 58.591881,58.591881 0 0 0 69.4082,128 58.591881,58.591881 0 0 0 128,186.5918 58.591881,58.591881 0 0 0 186.5918,128 58.591881,58.591881 0 0 0 128,69.408203 Z m 0,13.226563 A 45.364311,45.364311 0 0 1 173.36523,128 45.364311,45.364311 0 0 1 128,173.36523 45.364311,45.364311 0 0 1 82.63477,128 45.364311,45.364311 0 0 1 128,82.634766 Z" />
  </g>
</svg>
